<svg xmlns="http://www.w3.org/2000/svg" aria-hidden="true" style="position:absolute;width:0;height:0;overflow:hidden">
  <defs>
    <symbol id="icon-heart" viewBox="0 0 32 32">
      <path stroke-linecap="round" stroke-linejoin="round" stroke-width="2.667"
        d="M27.787 6.147a7.345 7.345 0 0 0-5.187-2.15 7.33 7.33 0 0 0-5.187 2.15L16 7.56l-1.413-1.413a7.333 7.333 0 0 0-10.374 0 7.333 7.333 0 0 0 0 10.374L16 28.308l11.787-11.787a7.345 7.345 0 0 0 2.15-5.187 7.33 7.33 0 0 0-2.15-5.187z" />
    </symbol>
    <symbol id="icon-close" viewBox="0 0 32 32">
      <path
        d="M18.828 16 31.414 3.415A2 2 0 0 0 28.585.586L16 13.172 3.415.586A2 2 0 0 0 .586 3.415L13.172 16 .586 28.585a2 2 0 0 0 2.829 2.829L16 18.828l12.585 12.586a2 2 0 0 0 2.829-2.829L18.828 16z" />
    </symbol>
    <symbol id="icon-car-seat" viewBox="0 0 32 32">
      <path
        d="M28.205.811A2.56 2.56 0 0 0 26.31 0h-2.017c-1.487 0-2.905 1.191-3.162 2.655l-.127.724c-.128.729.044 1.419.485 1.943s1.09.813 1.83.813h2.606c.361 0 .711-.072 1.036-.2l-.277 2.366a2.232 2.232 0 0 0-.867-.172h-2.973c-1.274 0-2.524 1.014-2.789 2.259l-2.628 12.391-12.401-.891c-.67-.048-1.23.179-1.576.625-.325.418-.42.978-.268 1.578l1.442 5.677c.312 1.23 1.599 2.231 2.868 2.231h15.847c1.286 0 2.442-1.04 2.578-2.319l2.034-19.179c.012-.11.013-.218.009-.325l.696-5.947c.098-.256.161-.528.18-.811l.046-.662A2.561 2.561 0 0 0 28.205.81z" />
    </symbol>
    <symbol id="icon-gps-location-marker-road-map-navigation-svgrepo-com" viewBox="0 0 32 32">
      <path
        d="m23.741 0-.512.041-.509.081-.5.125-.491.163-.472.2-.456.241-.434.275-.413.309-.387.341-.356.372-.328.397-.291.425-.256.444-.222.466-.184.481-.144.494-.103.506-.063.509-.019.516.019.722.063.722.103.719.144.709.181.703.225.691.259.675.303.659.334.644.375.622.406.6.441.575.475.55.503.522.531.494.559.462.262.178.288.141.297.103.313.063.319.022.316-.022.313-.063.303-.103.281-.141.266-.178.559-.463.531-.494.503-.522.472-.55.441-.575.409-.6.372-.622.337-.644.3-.659.262-.675.222-.691.184-.703.144-.709.1-.719.063-.722.022-.722-.022-.516-.063-.509-.103-.506-.144-.494-.181-.481-.222-.466-.256-.444-.294-.425-.325-.397-.356-.372-.387-.341-.413-.309-.434-.275-.459-.241-.472-.2-.488-.163-.5-.125-.509-.081-.516-.041h-.516zM24 1.594l.444.019.438.059.431.103.422.141.403.178.391.216.366.25.341.281.313.316.281.337.25.366.219.388.178.406.141.419.1.431.063.438.022.444-.022.675-.063.675-.1.666-.144.662-.181.65-.222.641-.259.625-.297.606-.334.591-.369.569-.4.544-.438.519-.466.491-.494.466-.522.431-.15.091-.166.059-.175.019-.178-.019-.166-.059-.15-.091-.519-.431-.497-.466-.466-.491-.431-.519-.403-.544-.372-.569-.331-.591-.297-.606-.259-.625-.225-.641-.181-.65-.141-.662-.103-.666-.059-.675-.022-.675.022-.444.059-.438.103-.431.141-.419.178-.406.216-.388.25-.366.284-.337.313-.316.341-.281.366-.25.387-.216.406-.178.419-.141.434-.103.438-.059.444-.019zM8.809 3.188a.8.8 0 0 0-.769.559l-8 24c-.338 1.012 1.181 1.519 1.519.506l8-24a.8.8 0 0 0-.75-1.066zm2.404 0a.802.802 0 0 0-.791.631l-5.6 24c-.313 1.081 1.359 1.47 1.556.363l5.6-24a.8.8 0 0 0-.766-.994zm3.975 0a.8.8 0 0 0-.787.813v1.6c-.015 1.082 1.615 1.082 1.6 0v-1.6a.8.8 0 0 0-.813-.813zm8.625.006-.369.044-.363.084-.35.128-.331.166-.313.206-.284.238-.256.272-.222.297-.184.322-.15.341-.103.356-.066.366-.025.372.025.369.066.366.103.356.15.341.184.322.222.3.256.269.284.241.313.2.331.169.35.128.363.084.369.044h.372l.369-.044.366-.084.347-.128.334-.169.313-.2.281-.241.256-.269.225-.3.184-.322.147-.341.106-.356.066-.366.022-.369-.022-.372-.066-.366-.106-.356-.147-.341-.184-.322-.225-.297-.256-.272-.281-.237-.313-.206-.334-.166-.347-.128-.366-.084-.369-.044h-.372zm.121 1.593.259.009.25.053.241.088.225.131.197.162.172.191.137.219.1.237.063.247.022.259-.022.253-.063.25-.1.237-.137.216-.172.194-.197.162-.225.128-.241.091-.25.053-.259.009-.256-.031-.247-.072-.231-.109-.212-.147-.184-.178-.156-.206-.119-.225-.081-.244-.044-.253v-.259l.044-.253.081-.244.119-.228.156-.203.184-.178.212-.147.231-.109.247-.072.256-.031zm-8.746 6.401a.8.8 0 0 0-.787.813v4.8c-.015 1.082 1.615 1.082 1.6 0v-4.8a.8.8 0 0 0-.813-.813zm11.709 6.168-.4.328a1.78 1.78 0 0 1-.119.091l-.266.178c-.06.042-.122.079-.188.113l-.284.141c-.043.02-.087.037-.131.053l3.331 9.994c.337 1.012 1.856.506 1.519-.506l-3.462-10.391zm-5.31.391 2.434 10.434c.197 1.108 1.869.718 1.556-.363l-2.172-9.306-.038-.006-.313-.063a1.65 1.65 0 0 1-.209-.056l-.3-.103a1.493 1.493 0 0 1-.184-.078l-.284-.137a1.718 1.718 0 0 1-.197-.119l-.241-.163-.022-.016-.031-.025zm-6.399 4.64a.8.8 0 0 0-.787.813V28c-.015 1.082 1.615 1.082 1.6 0v-4.8a.8.8 0 0 0-.813-.813z" />
    </symbol>
    <symbol id="icon-technical-support" viewBox="0 0 32 32">
      <path
        d="m29.502 29.505-.682-2.004a9.612 9.612 0 0 0-8.693-6.507c-.348.27-.714.502-1.093.705a2.168 2.168 0 0 1-3.582.751c-1.318-.116-2.525-.637-3.579-1.455a9.609 9.609 0 0 0-8.693 6.507l-.68 2.004a1.888 1.888 0 0 0 1.788 2.495h23.427a1.891 1.891 0 0 0 1.789-2.495zM18.608 19.47c2.292-1.611 3.895-5.169 3.895-8.608 0-9.775-13.006-9.764-13.006 0 0 4.18 2.367 8.529 5.463 9.349a2.173 2.173 0 0 1 2.044-1.458c.637 0 1.205.279 1.603.716z" />
      <path
        d="M6.644 14.942c.322 1.267 2.08.918 2.08-.255 0-4.702.225-5.141-.405-5.651C9.76.157 22.172.224 23.682 9.037c-.628.512-.404.949-.404 5.65 0 .368.198.676.482.868 0 3.657-1.484 3.444-5.945 4.626-.69-.749-1.922-.261-1.922.749 0 1.265 1.812 1.561 2.164.289 3.602-.955 6.768-1.256 6.768-4.856v-.739a1.05 1.05 0 0 0 .533-.682c3.472-.071 3.473-5.274 0-5.344a1.045 1.045 0 0 0-.497-.658c.09-1.065-.13-2.466-.741-3.818C19.872-3.643 7.326-.214 7.13 8.281c-.027.288-.005.492.011.659a1.04 1.04 0 0 0-.497.658c-1.454.028-2.627 1.212-2.627 2.672s1.173 2.644 2.627 2.672z" />
    </symbol>
    <symbol id="icon-concierge-desk-concierge-help-desk-communications-department" viewBox="0 0 32 32">
      <path
        d="M15.938.25a2.833 2.833 0 0 0-2.829 2.829 2.825 2.825 0 0 0 2.829 2.828 2.84 2.84 0 0 0 2.828-2.828A2.833 2.833 0 0 0 15.938.25zM19.5 6.5h-7.125c-1.949 0-3.5 1.676-3.5 3.625v4h2.5V10.75c0-.214.161-.375.375-.375s.375.161.375.375v3.375h7.625V10.75c0-.214.161-.375.375-.375s.375.161.375.375v3.375H23v-4C23 8.189 21.436 6.5 19.5 6.5zm-18 8.25v3.375h2.875V31.75H27.5V18.125h3V14.75h-29zm10.779 3.541a.375.375 0 0 1 .531-.001l1.922 1.92v.003a.377.377 0 0 1 .001.534v.001l-.678.676L11.6 18.97l.678-.679zm1.383 6.925c-3.399-3.485-2.606-5.613-2.249-6.059l2.456 2.453c-.35.35-.011.848.373 1.323a12.066 12.066 0 0 0 1.723 1.723c.827.675 1.259.971 1.592.637l2.395 2.395c-.398.414-2.709 1.199-6.29-2.471zm7.157 1.614-.001.001-.677.677-2.401-2.401.679-.679a.375.375 0 0 1 .53-.001l1.869 1.867v.001a.378.378 0 0 1 .003.534z" />
    </symbol>
    <symbol id="icon-wifi-logo" viewBox="0 0 32 32">
      <path d="M19.629 25.072a3.63 3.63 0 1 1-7.259 0 3.63 3.63 0 0 1 7.259 0z" />
      <path
        d="M16 15.395a9.703 9.703 0 0 0-7.879 4.058 1.613 1.613 0 1 0 2.625 1.875c1.211-1.695 3.175-2.707 5.254-2.707s4.043 1.012 5.254 2.707a1.613 1.613 0 1 0 2.625-1.875A9.703 9.703 0 0 0 16 15.395z" />
      <path
        d="M16 9.347a15.75 15.75 0 0 0-11.699 5.219A1.613 1.613 0 0 0 6.7 16.722c2.369-2.637 5.759-4.149 9.3-4.149s6.931 1.512 9.3 4.149a1.613 1.613 0 0 0 2.4-2.156 15.75 15.75 0 0 0-11.699-5.219z" />
      <path
        d="M31.538 9.821C27.409 5.615 21.891 3.299 16 3.299S4.591 5.615.462 9.822a1.613 1.613 0 1 0 2.302 2.26C6.282 8.499 10.982 6.525 16 6.525s9.719 1.973 13.236 5.556a1.613 1.613 0 1 0 2.302-2.26z" />
    </symbol>
    <symbol id="icon-car-insurance" viewBox="0 0 32 32">
      <path
        d="m31.443 22.269-5.354 4.559v1.637c0 .35-.298.591-.648.591H21.87c-.35 0-.648-.251-.648-.591v-3.67c0-.193.099-.397.251-.497l6.541-4.062.648-8.627c0-.748.591-1.338 1.338-1.338s1.338.591 1.338 1.286l.648 9.322c.052.753-.042.993-.544 1.391zM5.762 19.053v-6.447c0-.648.099-1.093.397-1.736l3.174-6.593c.35-.748 1.338-1.385 2.18-1.385h8.977c.889 0 1.887.591 2.227 1.385l3.174 6.593c.298.648.397 1.14.397 1.736v6.452c0 .251-.251.497-.497.497h-2.525a.5.5 0 0 1-.497-.497v-1.595H9.28v1.589c0 .251-.251.497-.497.497H6.258c-.246 0-.497-.251-.497-.497zm17.206-6.697c-.889 0-1.589.748-1.589 1.589s.695 1.589 1.589 1.589c.889 0 1.589-.695 1.589-1.589s-.701-1.589-1.589-1.589zM8.637 10.672h14.775l-2.18-4.559c-.444-.889-.842-1.093-1.736-1.093h-6.985c-.889 0-1.286.193-1.684 1.093l-2.191 4.559zM7.498 13.94c0 .842.695 1.589 1.589 1.589s1.589-.695 1.589-1.589-.695-1.589-1.589-1.589-1.589.748-1.589 1.589zm3.074 10.41-6.541-4.062-.648-8.627c.047-.795-.591-1.386-1.338-1.386S.66 10.866.66 11.608l-.648 9.327c-.047.748.047.988.544 1.386L5.91 26.88v1.637c0 .35.298.591.648.591h3.623c.35 0 .648-.251.648-.591v-3.67a.683.683 0 0 0-.256-.497z" />
    </symbol>
    <symbol id="icon-check" viewBox="0 0 32 32">
      <path
        d="M10.332 27.55c-.908 0-1.78-.361-2.421-1.003l-7.32-7.318a2.017 2.017 0 1 1 2.853-2.853l6.888 6.888L28.556 5.04a2.017 2.017 0 1 1 2.853 2.853L12.753 26.546a3.416 3.416 0 0 1-2.421 1.003z" />
    </symbol>
  </defs>
</svg>